HIERARCHY
ROOT Hips
{
	OFFSET 0.00000 0.00000 0.00000
	CHANNELS 6 Xposition Yposition Zposition Zrotation Yrotation Xrotation 
	JOINT LHipJoint
	{
		OFFSET 0 0 0
		CHANNELS 3 Zrotation Yrotation Xrotation
		JOINT LeftHip
		{
			OFFSET 1.54859 -1.61379 0.86856
			CHANNELS 3 Zrotation Yrotation Xrotation
			JOINT LeftKnee
			{
				OFFSET 2.25087 -6.18423 0.00000
				CHANNELS 3 Zrotation Yrotation Xrotation
				JOINT LeftAnkle
				{
					OFFSET 2.40328 -6.60297 0.00000
					CHANNELS 3 Zrotation Yrotation Xrotation
					JOINT LeftToe
					{
						OFFSET 0.17435 -0.47901 2.02453
						CHANNELS 3 Zrotation Yrotation Xrotation
						End Site
						{
							OFFSET 0.00000 -0.00000 1.04844
						}
					}
				}
			}
		}
	}
	JOINT RHipJoint
	{
		OFFSET 0 0 0
		CHANNELS 3 Zrotation Yrotation Xrotation
		JOINT RightHip
		{
			OFFSET -1.54669 -1.61379 0.86856
			CHANNELS 3 Zrotation Yrotation Xrotation
			JOINT RightKnee
			{
				OFFSET -2.28132 -6.26789 0.00000
				CHANNELS 3 Zrotation Yrotation Xrotation
				JOINT RightAnkle
				{
					OFFSET -2.51636 -6.91365 0.00000
					CHANNELS 3 Zrotation Yrotation Xrotation
					JOINT RightToe
					{
						OFFSET -0.15124 -0.41552 2.21090
						CHANNELS 3 Zrotation Yrotation Xrotation
						End Site
						{
							OFFSET -0.00000 -0.00000 1.13399
						}
					}
				}
			}
		}
	}
	JOINT lowerback
	{
		OFFSET 0 0 0
		CHANNELS 3 Zrotation Yrotation Xrotation
		JOINT Chest
		{
			OFFSET -0.04287 2.26161 -0.25690
			CHANNELS 3 Zrotation Yrotation Xrotation
			JOINT Chest2
			{
				OFFSET 0.02248 2.28395 -0.10140
				CHANNELS 3 Zrotation Yrotation Xrotation
				JOINT lowerneck
				{
					OFFSET 0 0 0
					CHANNELS 3 Zrotation Yrotation Xrotation
					JOINT Neck
					{
						OFFSET -0.11644 1.38496 0.11345
						CHANNELS 3 Zrotation Yrotation Xrotation
						JOINT Head
						{
							OFFSET 0.29383 1.36600 0.06642
							CHANNELS 3 Zrotation Yrotation Xrotation
							End Site
							{
								OFFSET 0.11075 1.41395 -0.00294
							}
						}
					}
				}
				JOINT LeftCollar
				{
					OFFSET 0 0 0
					CHANNELS 3 Zrotation Yrotation Xrotation
					JOINT LeftShoulder
					{
						OFFSET 3.51628 0.59542 -0.30346
CHANNELS 3 Zrotation Xrotation Yrotation
						JOINT LeftElbow
						{
OFFSET 0 -4.764050 0.000000
CHANNELS 3 Zrotation Xrotation Yrotation
							JOINT LeftWrist
							{
OFFSET 0 -3.137590 -0.000000
CHANNELS 3 Zrotation Xrotation Yrotation
								JOINT lhand
								{
									OFFSET 0 0 0
CHANNELS 3 Zrotation Xrotation Yrotation
									JOINT LFingers
									{
OFFSET 0 -0.732260 -0.000000
CHANNELS 3 Zrotation Xrotation Yrotation
										End Site
										{
OFFSET 0 -0.590370 -0.000000
										}
									}
								}
								JOINT LThumb
								{
OFFSET 0 0.000000 0.000000
CHANNELS 3 Zrotation Xrotation Yrotation
									End Site
									{
OFFSET 0 -0.599380 0.599380
									}
								}
							}
						}
					}
				}
				JOINT RightCollar
				{
					OFFSET 0 0 0
					CHANNELS 3 Zrotation Yrotation Xrotation
					JOINT RightShoulder
					{
						OFFSET -3.30990 0.84213 -0.36430
CHANNELS 3 Zrotation Xrotation Yrotation
						JOINT RightElbow
						{
OFFSET 0 -5.101610 -0.000000
CHANNELS 3 Zrotation Xrotation Yrotation
							JOINT RightWrist
							{
OFFSET 0 -3.232670 -0.000000
CHANNELS 3 Zrotation Xrotation Yrotation
								JOINT rhand
								{
									OFFSET 0 0 0
CHANNELS 3 Zrotation Xrotation Yrotation
									JOINT RFingers
									{
OFFSET 0 -0.702000 -0.000000
CHANNELS 3 Zrotation Xrotation Yrotation
										End Site
										{
OFFSET 0 -0.565970 -0.000000
										}
									}
								}
								JOINT RThumb
								{
OFFSET 0 0.000000 0.000000
CHANNELS 3 Zrotation Xrotation Yrotation
									End Site
									{
OFFSET 0 -0.574610 0.574610
									}
								}
							}
						}
					}
				}
			}
		}
	}
}
MOTION
Frames: 10
Frame Time: 0.008333333333333333
5.592584 14.801089 -2.313739 -168.567756 -82.847747 168.657392 0.000000 0.000000 0.000000 -12.770328 1.235377 -31.076837 10.289277 17.569374 60.450923 1.765483 -9.272875 -23.826257 0.543384 -4.722750 -13.119382 0.000000 0.000000 0.000000 16.639085 4.806271 -31.150940 -10.442041 -17.651036 60.955802 -1.778471 -5.034826 -27.417387 -0.442635 4.268558 -11.833504 -2.446018 1.048806 12.947228 0.571223 0.779370 6.534216 1.870982 0.181264 -0.448256 -16.306931 -7.671961 -3.120111 25.266063 -9.010039 -12.433901 10.624329 -4.946428 -0.866194 0.000000 0.000000 0.000000 86.521973 -58.720531 10.023551 42.436107 -49.448723 20.271347 15.146831 5.439259 -19.824524 0.000000 0.000000 0.000000 -7.125000 0.000000 0.000000 -13.119395 49.999806 1.641888 0.000000 0.000000 0.000000 -84.139819 -67.109736 -13.643188 -40.545082 -48.389577 -18.845811 -2.400141 -2.351199 -24.761122 0.000000 0.000000 0.000000 7.125000 0.000000 0.000000 16.471649 6.025920 15.313724
5.592651 14.801367 -2.313716 -168.620269 -82.849640 168.708177 0.000000 0.000000 0.000000 -12.779583 1.232830 -31.069910 10.287331 17.568322 60.444470 1.765648 -9.268525 -23.827271 0.543451 -4.723051 -13.120246 0.000000 0.000000 0.000000 16.631354 4.803514 -31.149520 -10.441222 -17.650608 60.953105 -1.777712 -5.034578 -27.412060 -0.441606 4.263675 -11.819711 -2.455454 1.049617 12.951285 0.571869 0.779310 6.532849 1.876947 0.181091 -0.451967 -16.304993 -7.667484 -3.116633 25.260188 -9.004217 -12.433804 10.622586 -4.943483 -0.868583 0.000000 0.000000 0.000000 86.517818 -58.716692 10.014754 42.444521 -49.453268 20.277740 15.152593 5.436878 -19.828273 0.000000 0.000000 0.000000 -7.125000 0.000000 0.000000 -13.115286 50.004419 1.642865 0.000000 0.000000 0.000000 -84.142058 -67.106709 -13.644863 -40.547245 -48.390832 -18.847434 -2.394124 -2.348096 -24.759965 0.000000 0.000000 0.000000 7.125000 0.000000 0.000000 16.475248 6.027460 15.316872
5.592719 14.801645 -2.313694 -168.672781 -82.851533 168.758962 0.000000 0.000000 0.000000 -12.788839 1.230283 -31.062984 10.285386 17.567271 60.438017 1.765813 -9.264176 -23.828285 0.543519 -4.723351 -13.121110 0.000000 0.000000 0.000000 16.623624 4.800757 -31.148100 -10.440403 -17.650179 60.950408 -1.776953 -5.034330 -27.406734 -0.440577 4.258792 -11.805918 -2.464889 1.050428 12.955342 0.572515 0.779250 6.531482 1.882912 0.180918 -0.455678 -16.303054 -7.663006 -3.113154 25.254313 -8.998394 -12.433706 10.620843 -4.940538 -0.870972 0.000000 0.000000 0.000000 86.513664 -58.712853 10.005957 42.452935 -49.457813 20.284133 15.158355 5.434496 -19.832022 0.000000 0.000000 0.000000 -7.125000 0.000000 0.000000 -13.111177 50.009032 1.643842 0.000000 0.000000 0.000000 -84.144297 -67.103681 -13.646538 -40.549409 -48.392086 -18.849057 -2.388106 -2.344993 -24.758808 0.000000 0.000000 0.000000 7.125000 0.000000 0.000000 16.478846 6.029000 15.320019
5.592787 14.801923 -2.313671 -168.725294 -82.853426 168.809746 0.000000 0.000000 0.000000 -12.798094 1.227736 -31.056057 10.283440 17.566219 60.431564 1.765978 -9.259826 -23.829300 0.543587 -4.723652 -13.121974 0.000000 0.000000 0.000000 16.615894 4.798000 -31.146680 -10.439584 -17.649751 60.947711 -1.776194 -5.034082 -27.401408 -0.439548 4.253909 -11.792125 -2.474325 1.051240 12.959399 0.573161 0.779190 6.530115 1.888877 0.180745 -0.459389 -16.301116 -7.658529 -3.109676 25.248438 -8.992572 -12.433608 10.619100 -4.937593 -0.873361 0.000000 0.000000 0.000000 86.509510 -58.709014 9.997160 42.461349 -49.462358 20.290526 15.164117 5.432115 -19.835771 0.000000 0.000000 0.000000 -7.125000 0.000000 0.000000 -13.107067 50.013644 1.644818 0.000000 0.000000 0.000000 -84.146536 -67.100654 -13.648214 -40.551573 -48.393341 -18.850679 -2.382089 -2.341891 -24.757651 0.000000 0.000000 0.000000 7.125000 0.000000 0.000000 16.482445 6.030540 15.323167
5.592854 14.802201 -2.313649 -168.777806 -82.855319 168.860531 0.000000 0.000000 0.000000 -12.807349 1.225190 -31.049131 10.281494 17.565167 60.425110 1.766144 -9.255476 -23.830314 0.543654 -4.723952 -13.122838 0.000000 0.000000 0.000000 16.608163 4.795243 -31.145261 -10.438765 -17.649323 60.945014 -1.775436 -5.033834 -27.396081 -0.438519 4.249026 -11.778332 -2.483761 1.052051 12.963455 0.573807 0.779130 6.528747 1.894842 0.180572 -0.463100 -16.299178 -7.654051 -3.106198 25.242563 -8.986750 -12.433511 10.617357 -4.934648 -0.875750 0.000000 0.000000 0.000000 86.505355 -58.705175 9.988363 42.469763 -49.466903 20.296919 15.169879 5.429733 -19.839519 0.000000 0.000000 0.000000 -7.125000 0.000000 0.000000 -13.102958 50.018257 1.645795 0.000000 0.000000 0.000000 -84.148774 -67.097626 -13.649889 -40.553736 -48.394596 -18.852302 -2.376071 -2.338788 -24.756494 0.000000 0.000000 0.000000 7.125000 0.000000 0.000000 16.486043 6.032080 15.326315
5.592922 14.802479 -2.313626 -168.830319 -82.857212 168.911316 0.000000 0.000000 0.000000 -12.816605 1.222643 -31.042204 10.279548 17.564115 60.418657 1.766309 -9.251126 -23.831328 0.543722 -4.724253 -13.123702 0.000000 0.000000 0.000000 16.600433 4.792486 -31.143841 -10.437946 -17.648895 60.942317 -1.774677 -5.033586 -27.390755 -0.437489 4.244143 -11.764539 -2.493196 1.052862 12.967512 0.574453 0.779069 6.527380 1.900807 0.180400 -0.466812 -16.297240 -7.649574 -3.102719 25.236689 -8.980928 -12.433413 10.615614 -4.931703 -0.878139 0.000000 0.000000 0.000000 86.501201 -58.701336 9.979566 42.478177 -49.471448 20.303312 15.175642 5.427352 -19.843268 0.000000 0.000000 0.000000 -7.125000 0.000000 0.000000 -13.098849 50.022870 1.646771 0.000000 0.000000 0.000000 -84.151013 -67.094598 -13.651564 -40.555900 -48.395850 -18.853925 -2.370054 -2.335685 -24.755337 0.000000 0.000000 0.000000 7.125000 0.000000 0.000000 16.489642 6.033620 15.329463
5.592989 14.802757 -2.313604 -168.882831 -82.859106 168.962100 0.000000 0.000000 0.000000 -12.825860 1.220096 -31.035277 10.277603 17.563064 60.412204 1.766474 -9.246777 -23.832342 0.543789 -4.724553 -13.124566 0.000000 0.000000 0.000000 16.592703 4.789729 -31.142421 -10.437127 -17.648467 60.939620 -1.773918 -5.033339 -27.385429 -0.436460 4.239260 -11.750746 -2.502632 1.053674 12.971569 0.575099 0.779009 6.526013 1.906772 0.180227 -0.470523 -16.295302 -7.645096 -3.099241 25.230814 -8.975106 -12.433315 10.613871 -4.928758 -0.880528 0.000000 0.000000 0.000000 86.497046 -58.697497 9.970768 42.486591 -49.475993 20.309706 15.181404 5.424970 -19.847017 0.000000 0.000000 0.000000 -7.125000 0.000000 0.000000 -13.094739 50.027482 1.647748 0.000000 0.000000 0.000000 -84.153252 -67.091571 -13.653239 -40.558063 -48.397105 -18.855548 -2.364036 -2.332583 -24.754180 0.000000 0.000000 0.000000 7.125000 0.000000 0.000000 16.493240 6.035160 15.332610
5.593057 14.802914 -2.313600 -168.940356 -82.860358 169.017706 0.000000 0.000000 0.000000 -12.834640 1.220334 -31.031390 10.276507 17.562469 60.408580 1.766456 -9.249900 -23.832303 0.542772 -4.720159 -13.112095 0.000000 0.000000 0.000000 16.584490 4.786661 -31.141420 -10.436886 -17.648337 60.938819 -1.773178 -5.033636 -27.380508 -0.436319 4.238589 -11.748854 -2.512227 1.054035 12.973139 0.574661 0.778289 6.526491 1.911811 0.179635 -0.470916 -16.305956 -7.643588 -3.092350 25.244757 -8.972792 -12.438477 10.621466 -4.928344 -0.881991 0.000000 0.000000 0.000000 86.503949 -58.692897 9.970973 42.491154 -49.478457 20.313174 15.189773 5.422932 -19.846648 0.000000 0.000000 0.000000 -7.125000 0.000000 0.000000 -13.086608 50.028428 1.646999 0.000000 0.000000 0.000000 -84.159259 -67.090675 -13.659527 -40.558654 -48.397446 -18.855984 -2.365834 -2.337448 -24.764569 0.000000 0.000000 0.000000 7.125000 0.000000 0.000000 16.491979 6.025072 15.334648
5.593125 14.803049 -2.313600 -168.998803 -82.861492 169.074200 0.000000 0.000000 0.000000 -12.843332 1.221086 -31.028062 10.275568 17.561958 60.405477 1.766403 -9.254400 -23.832070 0.541555 -4.714901 -13.097167 0.000000 0.000000 0.000000 16.576189 4.783536 -31.140496 -10.436751 -17.648261 60.938369 -1.772442 -5.034034 -27.375663 -0.436342 4.238694 -11.749154 -2.521850 1.054313 12.974251 0.574022 0.777448 6.527310 1.916679 0.178967 -0.470698 -16.318930 -7.642626 -3.084830 25.262352 -8.971124 -12.444607 10.630782 -4.928397 -0.883283 0.000000 0.000000 0.000000 86.512889 -58.688157 9.972836 42.495008 -49.480538 20.316104 15.198623 5.420956 -19.845522 0.000000 0.000000 0.000000 -7.125000 0.000000 0.000000 -13.077736 50.028699 1.645932 0.000000 0.000000 0.000000 -84.165960 -67.090172 -13.666664 -40.558954 -48.397619 -18.856202 -2.369072 -2.343781 -24.777085 0.000000 0.000000 0.000000 7.125000 0.000000 0.000000 16.489823 6.012842 15.336481
5.593192 14.803185 -2.313600 -169.057250 -82.862627 169.130694 0.000000 0.000000 0.000000 -12.852024 1.221837 -31.024734 10.274629 17.561447 60.402375 1.766350 -9.258900 -23.831838 0.540338 -4.709642 -13.082240 0.000000 0.000000 0.000000 16.567887 4.780411 -31.139572 -10.436615 -17.648186 60.937918 -1.771706 -5.034433 -27.370817 -0.436364 4.238799 -11.749455 -2.531474 1.054591 12.975363 0.573384 0.776607 6.528129 1.921547 0.178298 -0.470480 -16.331904 -7.641665 -3.077310 25.279946 -8.969456 -12.450737 10.640097 -4.928450 -0.884575 0.000000 0.000000 0.000000 86.521829 -58.683416 9.974699 42.498862 -49.482619 20.319034 15.207473 5.418980 -19.844395 0.000000 0.000000 0.000000 -7.125000 0.000000 0.000000 -13.068863 50.028969 1.644866 0.000000 0.000000 0.000000 -84.172661 -67.089668 -13.673801 -40.559255 -48.397791 -18.856420 -2.372310 -2.350114 -24.789601 0.000000 0.000000 0.000000 7.125000 0.000000 0.000000 16.487667 6.000611 15.338314
